solid WindSensorHarness
facet normal -0.8919479522308359 0.4521380878793762 0.0
  outer loop
    vertex 8.834499597549438 -0.8909999579191203 7.0
    vertex 8.66950011253357 -1.2164999693632126 2.0439280000000006
    vertex 8.66950011253357 -1.2164999693632126 7.0
  endloop
endfacet
facet normal -0.8919479522308359 0.4521380878793762 0.0
  outer loop
    vertex 8.66950011253357 -1.2164999693632126 2.0439280000000006
    vertex 8.834499597549438 -0.8909999579191203 7.0
    vertex 8.834499597549438 -0.8909999579191203 2.0439280000000006
  endloop
endfacet
facet normal -0.7071056720594624 0.7071078903118929 0.0
  outer loop
    vertex 8.834499597549438 -0.8909999579191203 7.0
    vertex 9.091000318527222 -0.6345000416040418 2.0439280000000006
    vertex 8.834499597549438 -0.8909999579191203 2.0439280000000006
  endloop
endfacet
facet normal -0.7071056720594624 0.7071078903118929 0.0
  outer loop
    vertex 9.091000318527222 -0.6345000416040418 2.0439280000000006
    vertex 8.834499597549438 -0.8909999579191203 7.0
    vertex 9.091000318527222 -0.6345000416040418 7.0
  endloop
endfacet
facet normal 0.15801650698578296 0.987436470478474 1.7000758598215657e-05
  outer loop
    vertex 9.787388997299493 -0.4132955691502472 3.989664265554118
    vertex 10.13349986076355 -0.46950002014637 2.0439280000000006
    vertex 9.774999380111693 -0.4125000387430189 2.0439280000000006
  endloop
endfacet
facet normal 0.15801650698578296 0.987436470478474 1.7000758598215657e-05
  outer loop
    vertex 10.13349986076355 -0.46950002014637 2.0439280000000006
    vertex 9.787388997299493 -0.4132955691502472 3.989664265554118
    vertex 10.13349986076355 -0.46950002014637 7.0
  endloop
endfacet
facet normal 0.15801650698578296 0.987436470478474 1.7000758598215657e-05
  outer loop
    vertex 10.13349986076355 -0.46950002014637 7.0
    vertex 9.787388997299493 -0.4132955691502472 3.989664265554118
    vertex 9.774999380111693 -0.4125000387430189 7.0
  endloop
endfacet
facet normal -0.15445516485438962 0.9879997978670881 -3.826743167604556e-05
  outer loop
    vertex 9.416500329971312 -0.46950002014637 7.0
    vertex 9.774999380111693 -0.4125000387430189 2.0439280000000006
    vertex 9.416500329971312 -0.46950002014637 2.0439280000000006
  endloop
endfacet
facet normal -0.15445516485438962 0.9879997978670881 -3.826743167604556e-05
  outer loop
    vertex 9.774999380111693 -0.4125000387430189 2.0439280000000006
    vertex 9.416500329971312 -0.46950002014637 7.0
    vertex 9.787388997299493 -0.4132955691502472 3.989664265554118
  endloop
endfacet
facet normal -0.15445516485438962 0.9879997978670881 -3.826743167604556e-05
  outer loop
    vertex 9.787388997299493 -0.4132955691502472 3.989664265554118
    vertex 9.416500329971312 -0.46950002014637 7.0
    vertex 9.774999380111693 -0.4125000387430189 7.0
  endloop
endfacet
facet normal -0.9875948018291231 -0.1570239070972799 0.0
  outer loop
    vertex 8.612499952316282 -1.5750000923871994 7.0
    vertex 8.66950011253357 -1.933500036597252 2.0439280000000006
    vertex 8.66950011253357 -1.933500036597252 7.0
  endloop
endfacet
facet normal -0.9875948018291231 -0.1570239070972799 0.0
  outer loop
    vertex 8.66950011253357 -1.933500036597252 2.0439280000000006
    vertex 8.612499952316282 -1.5750000923871994 7.0
    vertex 8.612499952316282 -1.5750000923871994 2.0439280000000006
  endloop
endfacet
facet normal -0.7071057952960633 -0.7071077670756571 0.0
  outer loop
    vertex 9.091000318527222 -2.515499874949455 7.0
    vertex 8.834499597549438 -2.258999869227409 2.0439280000000006
    vertex 9.091000318527222 -2.515499874949455 2.0439280000000006
  endloop
endfacet
facet normal -0.7071057952960633 -0.7071077670756571 0.0
  outer loop
    vertex 8.834499597549438 -2.258999869227409 2.0439280000000006
    vertex 9.091000318527222 -2.515499874949455 7.0
    vertex 8.834499597549438 -2.258999869227409 7.0
  endloop
endfacet
facet normal -0.45213964717443905 -0.8919471618055488 0.0
  outer loop
    vertex 9.416500329971312 -2.6805000752210617 7.0
    vertex 9.091000318527222 -2.515499874949455 2.0439280000000006
    vertex 9.416500329971312 -2.6805000752210617 2.0439280000000006
  endloop
endfacet
facet normal -0.45213964717443905 -0.8919471618055488 0.0
  outer loop
    vertex 9.091000318527222 -2.515499874949455 2.0439280000000006
    vertex 9.416500329971312 -2.6805000752210617 7.0
    vertex 9.091000318527222 -2.515499874949455 7.0
  endloop
endfacet
facet normal -0.45213925735106186 0.8919473594119948 0.0
  outer loop
    vertex 9.091000318527222 -0.6345000416040418 7.0
    vertex 9.416500329971312 -0.46950002014637 2.0439280000000006
    vertex 9.091000318527222 -0.6345000416040418 2.0439280000000006
  endloop
endfacet
facet normal -0.45213925735106186 0.8919473594119948 0.0
  outer loop
    vertex 9.416500329971312 -0.46950002014637 2.0439280000000006
    vertex 9.091000318527222 -0.6345000416040418 7.0
    vertex 9.416500329971312 -0.46950002014637 7.0
  endloop
endfacet
facet normal -0.9875948139748163 0.15702383070747025 0.0
  outer loop
    vertex 8.66950011253357 -1.2164999693632126 7.0
    vertex 8.612499952316282 -1.5750000923871994 2.0439280000000006
    vertex 8.612499952316282 -1.5750000923871994 7.0
  endloop
endfacet
facet normal -0.9875948139748163 0.15702383070747025 0.0
  outer loop
    vertex 8.612499952316282 -1.5750000923871994 2.0439280000000006
    vertex 8.66950011253357 -1.2164999693632126 7.0
    vertex 8.66950011253357 -1.2164999693632126 2.0439280000000006
  endloop
endfacet
facet normal -0.8919478520620671 -0.45213828548560814 0.0
  outer loop
    vertex 8.66950011253357 -1.933500036597252 7.0
    vertex 8.834499597549438 -2.258999869227409 2.0439280000000006
    vertex 8.834499597549438 -2.258999869227409 7.0
  endloop
endfacet
facet normal -0.8919478520620671 -0.45213828548560814 0.0
  outer loop
    vertex 8.834499597549438 -2.258999869227409 2.0439280000000006
    vertex 8.66950011253357 -1.933500036597252 7.0
    vertex 8.66950011253357 -1.933500036597252 2.0439280000000006
  endloop
endfacet
facet normal -0.15673710471004584 -0.9876403596385058 -4.498369432515279e-06
  outer loop
    vertex 9.776893931152816 -2.737481351662007 3.991273952632024
    vertex 9.416500329971312 -2.6805000752210617 2.0439280000000006
    vertex 9.774999380111693 -2.7374998778104778 2.0439280000000006
  endloop
endfacet
facet normal -0.15673710471004584 -0.9876403596385058 -4.498369432515279e-06
  outer loop
    vertex 9.416500329971312 -2.6805000752210617 2.0439280000000006
    vertex 9.776893931152816 -2.737481351662007 3.991273952632024
    vertex 9.416500329971312 -2.6805000752210617 7.0
  endloop
endfacet
facet normal -0.15673710471004584 -0.9876403596385058 -4.498369432515279e-06
  outer loop
    vertex 9.416500329971312 -2.6805000752210617 7.0
    vertex 9.776893931152816 -2.737481351662007 3.991273952632024
    vertex 9.774999380111693 -2.7374998778104778 7.0
  endloop
endfacet
facet normal 0.7266781670092305 -0.43096125276432784 -0.5349871402266659
  outer loop
    vertex 22.746999740600586 -32.33399963378906 1.0909999608993528
    vertex 22.934999465942383 -32.37699890136718 1.38100004196167
    vertex 22.746999740600586 -32.69400024414062 1.38100004196167
  endloop
endfacet
facet normal -0.1812702021114304 0.06490896830678168 0.9812889175262455
  outer loop
    vertex -18.57200050354004 28.089000701904297 7.801000118255614
    vertex -19.22800064086914 26.256999969482422 7.801000118255614
    vertex -18.89100074768066 26.155000686645504 7.869999885559081
  endloop
endfacet
facet normal -0.07412802983396026 0.17509392163171583 -0.9817571765974326
  outer loop
    vertex -15.005000114440918 -24.507999420166016 0.025000000372529026
    vertex -15.300999641418455 -24.22400093078613 0.09799999743700026
    vertex -15.163999557495115 -24.166000366210934 0.09799999743700026
  endloop
endfacet
facet normal 0.7992692447995847 0.439242172756051 0.41016458646504933
  outer loop
    vertex 11.411668777465819 3.6571390628814693 2.614563226699829
    vertex 11.315059661865234 3.5855195522308345 2.8809080123901363
    vertex 11.432000160217283 3.6159999370574947 2.61899995803833
  endloop
endfacet
facet normal 0.8570041434380004 0.4505186567196567 0.250153628951521
  outer loop
    vertex 11.419004440307617 3.662577629089355 2.579756498336792
    vertex 11.411668777465819 3.6571390628814693 2.614563226699829
    vertex 11.432000160217283 3.6159999370574947 2.61899995803833
  endloop
endfacet
facet normal -0.18136199630645453 0.0649234697813003 0.9812709969051843
  outer loop
    vertex -18.246999740600586 27.954000473022457 7.869999885559081
    vertex -18.57200050354004 28.089000701904297 7.801000118255614
    vertex -18.89100074768066 26.155000686645504 7.869999885559081
  endloop
endfacet
facet normal -0.07578953789528776 0.174323647183356 -0.981767391991765
  outer loop
    vertex -14.935999870300293 -24.478000640869137 0.025000000372529026
    vertex -15.005000114440918 -24.507999420166016 0.025000000372529026
    vertex -15.163999557495115 -24.166000366210934 0.09799999743700026
  endloop
endfacet
facet normal -0.07646285130483238 -5.949994850595759e-20 0.997072430854617
  outer loop
    vertex -4.4149999618530265 -14.336000442504881 3.9999999999999996
    vertex -4.741000175476073 -2.3347363471984863 3.974999904632568
    vertex -4.741000175476073 -24.43899917602539 3.974999904632568
  endloop
endfacet
facet normal 0.7071056720594624 0.7071078903118929 -0.0
  outer loop
    vertex 10.458999872207642 -0.6345000416040418 7.0
    vertex 10.715500593185425 -0.8909999579191203 2.0439280000000006
    vertex 10.458999872207642 -0.6345000416040418 2.0439280000000006
  endloop
endfacet
facet normal 0.7071056720594624 0.7071078903118929 -0.0
  outer loop
    vertex 10.715500593185425 -0.8909999579191203 2.0439280000000006
    vertex 10.458999872207642 -0.6345000416040418 7.0
    vertex 10.715500593185425 -0.8909999579191203 7.0
  endloop
endfacet
facet normal 0.7250020737729297 -0.4320707672017543 -0.5363644704439687
  outer loop
    vertex 22.746999740600586 -32.33399963378906 1.0909999608993528
    vertex 22.746999740600586 -32.69400024414062 1.38100004196167
    vertex 22.56999969482422 -32.63100051879883 1.0909999608993528
  endloop
endfacet
facet normal -0.09300347351388369 0.15584158513544194 -0.9833939974683725
  outer loop
    vertex -15.005000114440918 -24.507999420166016 0.025000000372529026
    vertex -15.067000389099121 -24.54500007629394 0.025000000372529026
    vertex -15.300999641418455 -24.22400093078613 0.09799999743700026
  endloop
endfacet
facet normal 0.40524529541820037 0.2947230527171223 -0.865398505163093
  outer loop
    vertex 10.418910026550293 3.443965673446655 0.2878538370132446
    vertex 10.335000038146973 3.345999956130981 0.21799999475479123
    vertex 10.389111518859863 3.4507114887237544 0.27900001406669617
  endloop
endfacet
facet normal 0.3375022203319362 0.33750150823733466 -0.8787405664976085
  outer loop
    vertex 10.335000038146973 3.345999956130981 0.21799999475479123
    vertex 10.222000122070312 3.4590001106262207 0.21799999475479123
    vertex 10.267077445983887 3.497550725936889 0.25011935830116266
  endloop
endfacet
facet normal 0.47718284987695414 -0.7960732038925014 -0.3722418324525553
  outer loop
    vertex 10.979000091552733 3.345999956130981 0.5849999785423279
    vertex 10.94322109222412 3.337646007537842 0.5569999814033507
    vertex 11.041110515594482 3.396322965621948 0.5569999814033507
  endloop
endfacet
facet normal 0.5955349024287169 -0.8033294342468856 -7.861119635364667e-06
  outer loop
    vertex 11.289966583251953 3.566916704177856 1.0633481740951538
    vertex 11.268828392028807 3.551246643066406 1.0240000486373901
    vertex 12.755000114440916 4.652999877929687 0.5569999814033507
  endloop
endfacet
facet normal 0.8585243840642339 0.45032849779196005 0.24523483856003048
  outer loop
    vertex 11.496685981750487 3.7201657295227046 2.000999927520752
    vertex 11.49340534210205 3.71773362159729 2.0480000972747803
    vertex 11.52299976348877 3.6700000762939453 2.000999927520752
  endloop
endfacet
facet normal 0.08648322244132244 0.31350196708294553 -0.9456411416976783
  outer loop
    vertex 9.914886474609375 3.5466148853301998 0.1910542845726013
    vertex 9.765999794006348 3.306999921798706 0.09799999743700026
    vertex 9.797974586486816 3.5444283485412593 0.17963726818561554
  endloop
endfacet
facet normal 0.8825523409897185 0.4629320696276713 -0.08243339325666886
  outer loop
    vertex 11.496685981750487 3.7201657295227046 2.000999927520752
    vertex 11.52299976348877 3.6700000762939453 2.000999927520752
    vertex 11.493294715881346 3.7176518440246578 1.9505746364593506
  endloop
endfacet
facet normal 0.5479486239257532 0.28688081729757087 -0.7857809505228233
  outer loop
    vertex 10.756999969482422 3.213999986648559 0.3819999992847442
    vertex 10.818345069885254 3.3132135868072505 0.46099999547004694
    vertex 10.88468074798584 3.3262026309967037 0.5120000243186951
  endloop
endfacet
facet normal 0.5479486239257532 0.28688081729757087 -0.7857809505228233
  outer loop
    vertex 10.818345069885254 3.3132135868072505 0.46099999547004694
    vertex 10.756999969482422 3.213999986648559 0.3819999992847442
    vertex 10.788576126098633 3.3229362964630123 0.4437908828258514
  endloop
endfacet
facet normal -0.1445447228044636 0.33909303858408585 -0.9295820212833251
  outer loop
    vertex 9.797974586486816 3.5444283485412593 0.17963726818561554
    vertex 9.765999794006348 3.306999921798706 0.09799999743700026
    vertex 9.762223243713379 3.5396931171417236 0.1768294125795364
  endloop
endfacet
facet normal 0.33750343072990446 0.33750191877370284 -0.8787399439365515
  outer loop
    vertex 10.389111518859863 3.4507114887237544 0.27900001406669617
    vertex 10.335000038146973 3.345999956130981 0.21799999475479123
    vertex 10.267077445983887 3.497550725936889 0.25011935830116266
  endloop
endfacet
facet normal 0.3025199074920217 -0.5047853935228063 -0.8085007186496771
  outer loop
    vertex 11.114999771118162 3.490999937057495 0.46099999547004694
    vertex 10.818345069885254 3.3132135868072505 0.46099999547004694
    vertex 10.788576126098633 3.3229362964630123 0.4437908828258514
  endloop
endfacet
facet normal 0.7388093505689926 0.3876480278696114 -0.5512619613220422
  outer loop
    vertex 11.255935668945312 3.541688919067383 0.9999999999999999
    vertex 11.319999694824219 3.5490000247955322 1.0909999608993528
    vertex 11.168000221252441 3.4590001106262207 0.8240000009536743
  endloop
endfacet
facet normal 0.7388093505689926 0.3876480278696114 -0.5512619613220422
  outer loop
    vertex 11.319999694824219 3.5490000247955322 1.0909999608993528
    vertex 11.255935668945312 3.541688919067383 0.9999999999999999
    vertex 11.268828392028807 3.551246643066406 1.0240000486373901
  endloop
endfacet
facet normal 0.7388093505689926 0.3876480278696114 -0.5512619613220422
  outer loop
    vertex 11.319999694824219 3.5490000247955322 1.0909999608993528
    vertex 11.268828392028807 3.551246643066406 1.0240000486373901
    vertex 11.30244919420949 3.5761706104974507 1.0909417536210635
  endloop
endfacet
facet normal 0.7388093505689926 0.3876480278696114 -0.5512619613220422
  outer loop
    vertex 11.30244919420949 3.5761706104974507 1.0909417536210635
    vertex 11.268828392028807 3.551246643066406 1.0240000486373901
    vertex 11.289966583251953 3.566916704177856 1.0633481740951538
  endloop
endfacet
facet normal -0.0 -0.0 1.0
  outer loop
    vertex 9.156999588012695 -25.061000823974606 3.9999999999999996
    vertex 9.057623634719977 -24.770929108051618 3.9999999999999996
    vertex -4.4149999618530265 -14.336000442504881 3.9999999999999996
  endloop
endfacet
facet normal -0.0 -0.0 1.0
  outer loop
    vertex 9.057623634719977 -24.770929108051618 3.9999999999999996
    vertex 9.156999588012695 -25.061000823974606 3.9999999999999996
    vertex 9.376999855041502 -25.025960922241207 3.9999999999999996
  endloop
endfacet
facet normal -0.25391690974779124 0.09092219490792992 0.9629430707042119
  outer loop
    vertex -18.57200050354004 28.089000701904297 7.801000118255614
    vertex -18.836000442504883 28.198999404907227 7.7210001945495605
    vertex -19.22800064086914 26.256999969482422 7.801000118255614
  endloop
endfacet
facet normal 0.9248745766331904 -0.10547240662887043 -0.3653526911595029
  outer loop
    vertex 23.089000701904297 -31.701000213623047 1.38100004196167
    vertex 23.169000625610348 -32.055999755859375 1.6859999895095825
    vertex 23.049999237060543 -32.042999267578125 1.38100004196167
  endloop
endfacet
facet normal -0.053061266371591524 0.18950486699643607 -0.9804450047788027
  outer loop
    vertex -14.861000061035156 -24.457000732421875 0.025000000372529026
    vertex -14.935999870300293 -24.478000640869137 0.025000000372529026
    vertex -15.017000198364256 -24.12299919128418 0.09799999743700026
  endloop
endfacet
facet normal -0.0 -0.0 1.0
  outer loop
    vertex -4.127999782562256 -24.922866821289062 3.9999999999999996
    vertex -4.4149999618530265 -14.336000442504881 3.9999999999999996
    vertex -4.4149999618530265 -24.79899978637695 3.9999999999999996
  endloop
endfacet
facet normal -0.05528526816759485 0.18899248692289194 -0.9804210213017354
  outer loop
    vertex -14.935999870300293 -24.478000640869137 0.025000000372529026
    vertex -15.163999557495115 -24.166000366210934 0.09799999743700026
    vertex -15.017000198364256 -24.12299919128418 0.09799999743700026
  endloop
endfacet
facet normal 0.675301556044553 0.6121765352672675 0.4113486332443196
  outer loop
    vertex 14.21500015258789 34.96500015258789 7.539000034332275
    vertex 15.562999725341797 33.47800064086913 7.539000034332275
    vertex 15.597000122070312 33.505001068115234 7.442999839782714
  endloop
endfacet
facet normal -0.8240259256711399 0.3895393238193398 0.4113883676286833
  outer loop
    vertex -18.329000473022457 30.163999557495114 7.442999839782714
    vertex -19.14900016784668 28.327999114990234 7.539000034332275
    vertex -18.291000366210938 30.14299964904785 7.539000034332275
  endloop
endfacet
facet normal -0.11483517571923742 -0.06880304274395799 -0.9909990028888551
  outer loop
    vertex -16.44700050354004 9.678000450134277 0.12999999523162842
    vertex -17.429000854492188 11.317000389099121 0.12999999523162842
    vertex -17.06999969482422 11.510000228881836 0.07500000298023224
  endloop
endfacet
facet normal -0.5337036663374484 0.2522961460656304 0.8071598672000458
  outer loop
    vertex -18.291000366210938 30.14299964904785 7.539000034332275
    vertex -19.14900016784668 28.327999114990234 7.539000034332275
    vertex -19.030000686645508 28.278999328613278 7.632999897003174
  endloop
endfacet
facet normal -0.531978913089178 0.25167942345213434 0.8084898909938566
  outer loop
    vertex -18.177000045776367 30.082000732421875 7.632999897003174
    vertex -18.291000366210938 30.14299964904785 7.539000034332275
    vertex -19.030000686645508 28.278999328613278 7.632999897003174
  endloop
endfacet
facet normal 0.15597844864696447 -0.2619278216986567 0.9523993593959854
  outer loop
    vertex 21.010000228881836 -32.43899917602539 3.7820000648498535
    vertex 20.551000595092773 -32.27600097656249 3.9019999504089355
    vertex 20.83200073242187 -32.544998168945305 3.7820000648498535
  endloop
endfacet
facet normal 0.3964587547318196 0.43734016294306216 -0.8071889727154548
  outer loop
    vertex 14.21500015258789 34.96500015258789 0.46099999547004694
    vertex 14.123999595642088 34.874000549316406 0.36700001358985895
    vertex 12.727999687194824 36.3129997253418 0.46099999547004694
  endloop
endfacet
facet normal 0.2183966757729699 -0.36674403449745435 0.9043238939516342
  outer loop
    vertex 21.32299995422363 -32.65700149536133 3.6180000305175777
    vertex 21.010000228881836 -32.43899917602539 3.7820000648498535
    vertex 20.83200073242187 -32.544998168945305 3.7820000648498535
  endloop
endfacet
facet normal -0.8205894858792837 0.3884153395266125 0.41924505922526883
  outer loop
    vertex -18.329000473022457 30.163999557495114 7.442999839782714
    vertex -19.190000534057614 28.344999313354492 7.442999839782714
    vertex -19.14900016784668 28.327999114990234 7.539000034332275
  endloop
endfacet
facet normal -0.5430561190321496 0.7325377415585027 -0.4104613365155213
  outer loop
    vertex -11.638999938964844 37.54499816894531 0.5569999814033507
    vertex -11.614999771118162 37.50899887084961 0.46099999547004694
    vertex -13.255000114440918 36.34700012207031 0.5569999814033507
  endloop
endfacet
facet normal 0.8222272185162328 -0.09376653410494121 -0.56138243489889
  outer loop
    vertex 23.089000701904297 -31.701000213623047 1.38100004196167
    vertex 23.049999237060543 -32.042999267578125 1.38100004196167
    vertex 22.891000747680664 -31.701000213623047 1.0909999608993528
  endloop
endfacet
facet normal 0.21773097146776535 -0.368720334064018 0.9036805515841436
  outer loop
    vertex 21.32299995422363 -32.65700149536133 3.6180000305175777
    vertex 20.83200073242187 -32.544998168945305 3.7820000648498535
    vertex 21.09099960327148 -32.79399871826171 3.6180000305175777
  endloop
endfacet
facet normal -0.16536493681602213 -0.09907774986927359 -0.9812431080790708
  outer loop
    vertex -16.44700050354004 9.678000450134277 0.12999999523162842
    vertex -16.739000320434567 9.482000350952147 0.1990000009536743
    vertex -17.429000854492188 11.317000389099121 0.12999999523162842
  endloop
endfacet
facet normal -0.055169365729569424 0.33101480981268805 -0.9420114313370443
  outer loop
    vertex -14.935999870300293 -23.767999649047848 0.21799999475479123
    vertex -15.017000198364256 -24.12299919128418 0.09799999743700026
    vertex -15.163999557495115 -23.805999755859375 0.21799999475479123
  endloop
endfacet
facet normal 0.4375999374585125 0.39669450062521616 -0.806932319287074
  outer loop
    vertex 15.562999725341797 33.47800064086913 0.46099999547004694
    vertex 15.46399974822998 33.39599990844726 0.36700001358985895
    vertex 14.21500015258789 34.96500015258789 0.46099999547004694
  endloop
endfacet
facet normal -0.23110220753236205 -0.13860588871375537 -0.9630058033509139
  outer loop
    vertex -16.739000320434567 9.482000350952147 0.1990000009536743
    vertex -16.976999282836914 9.322999954223631 0.27900001406669617
    vertex -17.73999977111816 11.151000022888182 0.1990000009536743
  endloop
endfacet
facet normal 0.25902683819381916 -0.31498524751399537 0.9130659291331925
  outer loop
    vertex 21.520000457763672 -32.494998931884766 3.6180000305175777
    vertex 21.010000228881836 -32.43899917602539 3.7820000648498535
    vertex 21.32299995422363 -32.65700149536133 3.6180000305175777
  endloop
endfacet
facet normal 0.25827716965380665 -0.3186790352696365 0.9119959298786551
  outer loop
    vertex 21.520000457763672 -32.494998931884766 3.6180000305175777
    vertex 21.163000106811523 -32.314998626708984 3.7820000648498535
    vertex 21.010000228881836 -32.43899917602539 3.7820000648498535
  endloop
endfacet
facet normal -0.33188154484864607 -0.19885487008395208 -0.9221233002330929
  outer loop
    vertex -16.976999282836914 9.322999954223631 0.27900001406669617
    vertex -17.15200042724609 9.206999778747557 0.36700001358985895
    vertex -17.992000579833984 11.017000198364258 0.27900001406669617
  endloop
endfacet
facet normal 0.20004683377771756 0.18131878779796784 0.9628627947360858
  outer loop
    vertex 15.300999641418455 33.26200103759765 7.7210001945495605
    vertex 13.772999763488768 34.52299880981445 7.801000118255614
    vertex 15.079999923706055 33.081001281738274 7.801000118255614
  endloop
endfacet
facet normal 0.14277593128937602 0.12946656971807857 0.9812509570797298
  outer loop
    vertex 15.079999923706055 33.081001281738274 7.801000118255614
    vertex 13.52400016784668 34.27399826049805 7.869999885559081
    vertex 14.807999610900877 32.858001708984375 7.869999885559081
  endloop
endfacet
facet normal 0.14263885108917337 0.12928524328018903 0.9812947997569045
  outer loop
    vertex 15.079999923706055 33.081001281738274 7.801000118255614
    vertex 13.772999763488768 34.52299880981445 7.801000118255614
    vertex 13.52400016784668 34.27399826049805 7.869999885559081
  endloop
endfacet
facet normal -0.2317971159014978 -0.13888685913357487 -0.9627982849069469
  outer loop
    vertex -16.976999282836914 9.322999954223631 0.27900001406669617
    vertex -17.992000579833984 11.017000198364258 0.27900001406669617
    vertex -17.73999977111816 11.151000022888182 0.1990000009536743
  endloop
endfacet
facet normal 0.06691459394560553 0.060687159209589114 -0.9959113945648804
  outer loop
    vertex 13.375349998474121 33.72909164428711 0.06870777904987334
    vertex 13.187000274658201 33.9370002746582 0.06872187554836273
    vertex 13.236000061035156 33.98600006103515 0.07500000298023224
  endloop
endfacet
facet normal 0.2854835224901151 0.258750241182247 0.9227932981306078
  outer loop
    vertex 15.46399974822998 33.39599990844726 7.632999897003174
    vertex 13.975000381469725 34.724998474121094 7.7210001945495605
    vertex 15.300999641418455 33.26200103759765 7.7210001945495605
  endloop
endfacet
facet normal -0.1649262273650231 -0.09891617462345 -0.9813332410170379
  outer loop
    vertex -16.739000320434567 9.482000350952147 0.1990000009536743
    vertex -17.73999977111816 11.151000022888182 0.1990000009536743
    vertex -17.429000854492188 11.317000389099121 0.12999999523162842
  endloop
endfacet
facet normal 0.09925204936156051 0.08999991982042706 0.9909838773309319
  outer loop
    vertex 14.807999610900877 32.858001708984375 7.869999885559081
    vertex 13.52400016784668 34.27399826049805 7.869999885559081
    vertex 13.236000061035156 33.98600006103515 7.925000190734862
  endloop
endfacet
facet normal 0.9391037030979351 -0.3203516825198932 -0.12433436505817282
  outer loop
    vertex 23.169000625610348 -32.055999755859375 1.6859999895095825
    vertex 23.20899963378906 -32.0610008239746 2.000999927520752
    vertex 23.089000701904297 -32.4119987487793 1.9989999532699583
  endloop
endfacet
facet normal 0.0990072930604396 0.08965610958983276 0.9910395239010705
  outer loop
    vertex 14.807999610900877 32.858001708984375 7.869999885559081
    vertex 13.236000061035156 33.98600006103515 7.925000190734862
    vertex 14.491999626159666 32.5989990234375 7.925000190734862
  endloop
endfacet
facet normal -0.1259452006305395 0.04503139839690564 0.9910146212829316
  outer loop
    vertex -17.8700008392334 27.79800033569336 7.925000190734862
    vertex -18.246999740600586 27.954000473022457 7.869999885559081
    vertex -18.5 26.0359992980957 7.925000190734862
  endloop
endfacet
facet normal 0.12928570888570678 0.14263924121979352 -0.981294681704819
  outer loop
    vertex 13.772999763488768 34.52299880981445 0.1990000009536743
    vertex 13.52400016784668 34.27399826049805 0.12999999523162842
    vertex 12.331000328063965 35.83000183105469 0.1990000009536743
  endloop
endfacet
facet normal 0.20003026489805903 0.1813037700687786 -0.9628690648700166
  outer loop
    vertex 15.079999923706055 33.081001281738274 0.1990000009536743
    vertex 13.772999763488768 34.52299880981445 0.1990000009536743
    vertex 13.975000381469725 34.724998474121094 0.27900001406669617
  endloop
endfacet
facet normal 0.12931504511290637 0.14260910799015586 0.9812951958639659
  outer loop
    vertex 13.772999763488768 34.52299880981445 7.801000118255614
    vertex 12.10799980163574 35.557998657226555 7.869999885559081
    vertex 13.52400016784668 34.27399826049805 7.869999885559081
  endloop
endfacet
facet normal 0.852775011127582 -0.5080361768419598 -0.12113638353590357
  outer loop
    vertex 23.049999237060543 -32.40299987792969 1.6859999895095825
    vertex 22.891000747680664 -32.744998931884766 2.000999927520752
    vertex 22.854000091552734 -32.731998443603516 1.6859999895095825
  endloop
endfacet
facet normal -0.09142303911512181 0.3149029631137478 -0.9447105121364622
  outer loop
    vertex -15.163999557495115 -24.166000366210934 0.09799999743700026
    vertex -15.38099956512451 -23.868999481201172 0.21799999475479123
    vertex -15.163999557495115 -23.805999755859375 0.21799999475479123
  endloop
endfacet
facet normal 0.14280331112169142 0.12943430684282717 -0.9812512290666434
  outer loop
    vertex 15.079999923706055 33.081001281738274 0.1990000009536743
    vertex 14.807999610900877 32.858001708984375 0.12999999523162842
    vertex 13.772999763488768 34.52299880981445 0.1990000009536743
  endloop
endfacet
facet normal 0.8529142187120223 -0.5078637778993262 -0.1208789419902585
  outer loop
    vertex 23.049999237060543 -32.40299987792969 1.6859999895095825
    vertex 23.089000701904297 -32.4119987487793 1.9989999532699583
    vertex 22.891000747680664 -32.744998931884766 2.000999927520752
  endloop
endfacet
facet normal -0.47345890659793677 -0.3510584084561035 -0.8078333105383522
  outer loop
    vertex -16.062999725341797 7.521999835968018 0.46099999547004694
    vertex -17.259000778198242 9.135000228881836 0.46099999547004694
    vertex -17.15200042724609 9.206999778747557 0.36700001358985895
  endloop
endfacet
facet normal 0.9383609063428896 -0.32180464418692745 -0.12617678244065433
  outer loop
    vertex 23.169000625610348 -32.055999755859375 1.6859999895095825
    vertex 23.089000701904297 -32.4119987487793 1.9989999532699583
    vertex 23.049999237060543 -32.40299987792969 1.6859999895095825
  endloop
endfacet
facet normal 0.985675295740698 -0.11105939452067921 -0.1269252624783099
  outer loop
    vertex 23.20899963378906 -31.701000213623047 1.6859999895095825
    vertex 23.20899963378906 -32.0610008239746 2.000999927520752
    vertex 23.169000625610348 -32.055999755859375 1.6859999895095825
  endloop
endfacet
facet normal -0.7319714824477868 -0.5427392749030907 -0.41188812602557134
  outer loop
    vertex -17.259000778198242 9.135000228881836 0.46099999547004694
    vertex -16.062999725341797 7.521999835968018 0.46099999547004694
    vertex -16.097000122070312 7.494999885559082 0.5569999814033507
  endloop
endfacet
facet normal 0.1813037038510464 0.20003001855768535 0.9628691285142047
  outer loop
    vertex 13.975000381469725 34.724998474121094 7.7210001945495605
    vertex 12.331000328063965 35.83000183105469 7.801000118255614
    vertex 13.772999763488768 34.52299880981445 7.801000118255614
  endloop
endfacet
facet normal 0.14260947612497732 0.12931563125841009 -0.9812950651213929
  outer loop
    vertex 14.807999610900877 32.858001708984375 0.12999999523162842
    vertex 13.52400016784668 34.27399826049805 0.12999999523162842
    vertex 13.772999763488768 34.52299880981445 0.1990000009536743
  endloop
endfacet
facet normal 0.2000325465255671 0.18130107547479105 0.9628690982486566
  outer loop
    vertex 15.300999641418455 33.26200103759765 7.7210001945495605
    vertex 13.975000381469725 34.724998474121094 7.7210001945495605
    vertex 13.772999763488768 34.52299880981445 7.801000118255614
  endloop
endfacet
facet normal 0.18131718352823395 0.200050566151333 0.9628623213834467
  outer loop
    vertex 13.975000381469725 34.724998474121094 7.7210001945495605
    vertex 12.51200008392334 36.05099868774414 7.7210001945495605
    vertex 12.331000328063965 35.83000183105469 7.801000118255614
  endloop
endfacet
facet normal -0.012727960084906434 0.20360367270839355 -0.9789706550718108
  outer loop
    vertex -14.70199966430664 -24.43899917602539 0.025000000372529026
    vertex -14.781999588012694 -24.44400024414062 0.025000000372529026
    vertex -14.70199966430664 -24.08799934387207 0.09799999743700026
  endloop
endfacet
facet normal -0.0921115214953527 0.31488289916375967 -0.9446503201831019
  outer loop
    vertex -15.017000198364256 -24.12299919128418 0.09799999743700026
    vertex -15.163999557495115 -24.166000366210934 0.09799999743700026
    vertex -15.163999557495115 -23.805999755859375 0.21799999475479123
  endloop
endfacet
facet normal 0.06696232446626575 0.06063758734102589 0.9959112059333071
  outer loop
    vertex 14.251834869384766 32.761600494384766 7.931247711181641
    vertex 13.236000061035156 33.98600006103515 7.925000190734862
    vertex 13.187000274658201 33.9370002746582 7.931278228759765
  endloop
endfacet
facet normal -0.004330731147753876 0.0692768331541959 -0.9975880738841316
  outer loop
    vertex -14.70199966430664 -24.79899978637695 0.0
    vertex -14.781999588012694 -24.44400024414062 0.025000000372529026
    vertex -14.70199966430664 -24.43899917602539 0.025000000372529026
  endloop
endfacet
facet normal -0.3499606743243573 0.16556652637490815 0.9220169476590916
  outer loop
    vertex -18.177000045776367 30.082000732421875 7.632999897003174
    vertex -19.030000686645508 28.278999328613278 7.632999897003174
    vertex -18.836000442504883 28.198999404907227 7.7210001945495605
  endloop
endfacet
facet normal 0.9254937124469221 -0.10427853044628844 -0.36412549527487925
  outer loop
    vertex 23.20899963378906 -31.701000213623047 1.6859999895095825
    vertex 23.169000625610348 -32.055999755859375 1.6859999895095825
    vertex 23.089000701904297 -31.701000213623047 1.38100004196167
  endloop
endfacet
facet normal 0.20004928952487588 0.18131625062420578 -0.9628627622980197
  outer loop
    vertex 15.300999641418455 33.26200103759765 0.27900001406669617
    vertex 15.079999923706055 33.081001281738274 0.1990000009536743
    vertex 13.975000381469725 34.724998474121094 0.27900001406669617
  endloop
endfacet
facet normal 0.8079000446737893 -0.4791304199958854 -0.34312032649007546
  outer loop
    vertex 22.934999465942383 -32.37699890136718 1.38100004196167
    vertex 22.854000091552734 -32.731998443603516 1.6859999895095825
    vertex 22.746999740600586 -32.69400024414062 1.38100004196167
  endloop
endfacet
facet normal 0.06695993177681503 0.06063560366048043 0.9959114875857059
  outer loop
    vertex 14.491999626159666 32.5989990234375 7.925000190734862
    vertex 13.236000061035156 33.98600006103515 7.925000190734862
    vertex 14.251834869384766 32.761600494384766 7.931247711181641
  endloop
endfacet
facet normal -0.364186513471212 0.13031572466816002 0.9221637573174816
  outer loop
    vertex -19.030000686645508 28.278999328613278 7.632999897003174
    vertex -19.70199966430664 26.400999069213864 7.632999897003174
    vertex -19.500999450683594 26.340000152587887 7.7210001945495605
  endloop
endfacet
facet normal -0.03310276156936676 0.19862385488935932 -0.9795166009034111
  outer loop
    vertex -14.861000061035156 -24.457000732421875 0.025000000372529026
    vertex -15.017000198364256 -24.12299919128418 0.09799999743700026
    vertex -14.861000061035156 -24.09700012207031 0.09799999743700026
  endloop
endfacet
facet normal -0.018823404814752413 0.3388088592416046 -0.9406669104048376
  outer loop
    vertex -14.70199966430664 -23.7549991607666 0.21799999475479123
    vertex -14.861000061035156 -24.09700012207031 0.09799999743700026
    vertex -14.935999870300293 -23.767999649047848 0.21799999475479123
  endloop
endfacet
facet normal -0.055167039160468785 0.33101437648708504 -0.942011719857632
  outer loop
    vertex -14.861000061035156 -24.09700012207031 0.09799999743700026
    vertex -15.017000198364256 -24.12299919128418 0.09799999743700026
    vertex -14.935999870300293 -23.767999649047848 0.21799999475479123
  endloop
endfacet
facet normal -0.36447983500717374 0.13038129438648938 0.9220385935237456
  outer loop
    vertex -18.836000442504883 28.198999404907227 7.7210001945495605
    vertex -19.030000686645508 28.278999328613278 7.632999897003174
    vertex -19.500999450683594 26.340000152587887 7.7210001945495605
  endloop
endfacet
facet normal -0.019187855701341412 0.3389569881278696 -0.9406061802863449
  outer loop
    vertex -14.70199966430664 -24.08799934387207 0.09799999743700026
    vertex -14.861000061035156 -24.09700012207031 0.09799999743700026
    vertex -14.70199966430664 -23.7549991607666 0.21799999475479123
  endloop
endfacet
facet normal -0.0 -0.0 1.0
  outer loop
    vertex 9.664999961853026 -24.79899978637695 3.9999999999999996
    vertex -4.034999847412109 -2.0480000972747803 3.9999999999999996
    vertex -4.189000129699706 -2.2019999027252197 3.9999999999999996
  endloop
endfacet
facet normal 0.9851877486641127 -0.11291969132797779 -0.1290513199953079
  outer loop
    vertex 23.25 -31.701000213623047 1.9989999532699583
    vertex 23.20899963378906 -32.0610008239746 2.000999927520752
    vertex 23.20899963378906 -31.701000213623047 1.6859999895095825
  endloop
endfacet
facet normal -0.011511023835477106 0.20334434604220392 -0.9790396178209172
  outer loop
    vertex -14.70199966430664 -24.08799934387207 0.09799999743700026
    vertex -14.781999588012694 -24.44400024414062 0.025000000372529026
    vertex -14.861000061035156 -24.09700012207031 0.09799999743700026
  endloop
endfacet
facet normal 0.8063586148353045 -0.4803838556465604 -0.34498860200742
  outer loop
    vertex 22.934999465942383 -32.37699890136718 1.38100004196167
    vertex 23.049999237060543 -32.40299987792969 1.6859999895095825
    vertex 22.854000091552734 -32.731998443603516 1.6859999895095825
  endloop
endfacet
facet normal 0.8826047467686214 -0.3038905842941689 -0.35869119554129897
  outer loop
    vertex 23.049999237060543 -32.042999267578125 1.38100004196167
    vertex 23.049999237060543 -32.40299987792969 1.6859999895095825
    vertex 22.934999465942383 -32.37699890136718 1.38100004196167
  endloop
endfacet
facet normal -0.5557495637591859 0.19886213370451172 0.8072151349918827
  outer loop
    vertex -19.030000686645508 28.278999328613278 7.632999897003174
    vertex -19.14900016784668 28.327999114990234 7.539000034332275
    vertex -19.70199966430664 26.400999069213864 7.632999897003174
  endloop
endfacet
facet normal 0.060686081467226025 0.06691386916184285 0.9959115089353797
  outer loop
    vertex 13.236000061035156 33.98600006103515 7.925000190734862
    vertex 12.979093551635742 34.12535095214843 7.931292057037353
    vertex 13.187000274658201 33.9370002746582 7.931278228759765
  endloop
endfacet
facet normal -0.032686418221267347 0.19862657809660308 -0.9795300304418944
  outer loop
    vertex -14.781999588012694 -24.44400024414062 0.025000000372529026
    vertex -14.861000061035156 -24.457000732421875 0.025000000372529026
    vertex -14.861000061035156 -24.09700012207031 0.09799999743700026
  endloop
endfacet
facet normal 0.8833790764705732 -0.30294899059009955 -0.3575798041758467
  outer loop
    vertex 23.049999237060543 -32.042999267578125 1.38100004196167
    vertex 23.169000625610348 -32.055999755859375 1.6859999895095825
    vertex 23.049999237060543 -32.40299987792969 1.6859999895095825
  endloop
endfacet
facet normal -0.15758698416979244 -0.9875051098602554 2.049767814460725e-05
  outer loop
    vertex -4.1134989333600505 -27.70992054496537 3.9999999999999996
    vertex -4.588750064373016 -27.633750915527337 3.0826829999999994
    vertex -4.11000019311905 -27.70999956130981 3.0826829999999994
  endloop
endfacet
facet normal -0.15758698416979244 -0.9875051098602554 2.049767814460725e-05
  outer loop
    vertex -4.588750064373016 -27.633750915527337 3.0826829999999994
    vertex -4.1134989333600505 -27.70992054496537 3.9999999999999996
    vertex -4.588750064373016 -27.633750915527337 7.0
  endloop
endfacet
facet normal -0.15758698416979244 -0.9875051098602554 2.049767814460725e-05
  outer loop
    vertex -4.588750064373016 -27.633750915527337 7.0
    vertex -4.1134989333600505 -27.70992054496537 3.9999999999999996
    vertex -4.11000019311905 -27.70999956130981 7.0
  endloop
endfacet
facet normal -0.4533864556080266 -0.8913140422270879 0.0
  outer loop
    vertex -4.588750064373016 -27.633750915527337 7.0
    vertex -5.021250307559968 -27.41375017166137 3.0826829999999994
    vertex -4.588750064373016 -27.633750915527337 3.0826829999999994
  endloop
endfacet
facet normal -0.4533864556080266 -0.8913140422270879 0.0
  outer loop
    vertex -5.021250307559968 -27.41375017166137 3.0826829999999994
    vertex -4.588750064373016 -27.633750915527337 7.0
    vertex -5.021250307559968 -27.41375017166137 7.0
  endloop
endfacet
facet normal 0.4533867038035815 -0.8913139159769264 0.0
  outer loop
    vertex -3.1987500786781315 -27.41375017166137 7.0
    vertex -3.6312500238418584 -27.633750915527337 3.0826829999999994
    vertex -3.1987500786781315 -27.41375017166137 3.0826829999999994
  endloop
endfacet
facet normal 0.4533867038035815 -0.8913139159769264 0.0
  outer loop
    vertex -3.6312500238418584 -27.633750915527337 3.0826829999999994
    vertex -3.1987500786781315 -27.41375017166137 7.0
    vertex -3.6312500238418584 -27.633750915527337 7.0
  endloop
endfacet
facet normal 0.9875320399787688 0.15741813726440718 -8.693414279522237e-06
  outer loop
    vertex -2.636250019073487 -25.681250572204583 3.0826829999999994
    vertex -2.5599998831748967 -26.159999847412106 7.0
    vertex -2.5599998831748967 -26.159999847412106 3.0826829999999994
  endloop
endfacet
facet normal 0.9875320399787688 0.15741813726440718 -8.693414279522237e-06
  outer loop
    vertex -2.5599998831748967 -26.159999847412106 7.0
    vertex -2.636250019073487 -25.681250572204583 3.0826829999999994
    vertex -2.636250019073487 -25.681250572204583 7.0
  endloop
endfacet
facet normal 0.9875320399787688 0.15741813726440718 -8.693414279522237e-06
  outer loop
    vertex -2.636250019073487 -25.681250572204583 7.0
    vertex -2.636250019073487 -25.681250572204583 3.0826829999999994
    vertex -2.636640453252063 -25.68008046808875 3.9999999999999996
  endloop
endfacet
facet normal 0.7071070888276599 0.7071064735453013 -0.0
  outer loop
    vertex -3.1987500786781315 -24.906249523162835 3.0826829999999994
    vertex -2.856250166893006 -25.248749732971188 7.0
    vertex -2.856250166893006 -25.248749732971188 3.0826829999999994
  endloop
endfacet
facet normal 0.7071070888276599 0.7071064735453013 -0.0
  outer loop
    vertex -2.856250166893006 -25.248749732971188 7.0
    vertex -3.1987500786781315 -24.906249523162835 3.0826829999999994
    vertex -3.1987500786781315 -24.906249523162835 7.0
  endloop
endfacet
facet normal 0.15728852899331605 0.9875526915801096 -0.0
  outer loop
    vertex -4.11000019311905 -24.610000133514404 7.0
    vertex -3.6312500238418584 -24.686251163482662 3.0826829999999994
    vertex -4.11000019311905 -24.610000133514404 3.0826829999999994
  endloop
endfacet
facet normal 0.15728852899331605 0.9875526915801096 -0.0
  outer loop
    vertex -3.6312500238418584 -24.686251163482662 3.0826829999999994
    vertex -4.11000019311905 -24.610000133514404 7.0
    vertex -3.6312500238418584 -24.686251163482662 7.0
  endloop
endfacet
facet normal -0.7071073964689034 0.7071061659036564 0.0
  outer loop
    vertex -5.021250307559968 -24.906249523162835 7.0
    vertex -5.363749921321868 -25.248749732971188 3.0826829999999994
    vertex -5.363749921321868 -25.248749732971188 7.0
  endloop
endfacet
facet normal -0.7071073964689034 0.7071061659036564 0.0
  outer loop
    vertex -5.363749921321868 -25.248749732971188 3.0826829999999994
    vertex -5.021250307559968 -24.906249523162835 7.0
    vertex -5.021250307559968 -24.906249523162835 3.0826829999999994
  endloop
endfacet
facet normal 0.7071070888276484 -0.707106473545313 0.0
  outer loop
    vertex -2.856250166893006 -27.071249961853027 3.0826829999999994
    vertex -3.1987500786781315 -27.41375017166137 7.0
    vertex -3.1987500786781315 -27.41375017166137 3.0826829999999994
  endloop
endfacet
facet normal 0.7071070888276484 -0.707106473545313 0.0
  outer loop
    vertex -3.1987500786781315 -27.41375017166137 7.0
    vertex -2.856250166893006 -27.071249961853027 3.0826829999999994
    vertex -2.856250166893006 -27.071249961853027 7.0
  endloop
endfacet
facet normal 0.892333093197161 -0.45137748087065027 -0.000143345920179907
  outer loop
    vertex -2.636250019073487 -26.63874912261963 3.0826829999999994
    vertex -2.856250166893006 -27.071249961853027 7.0
    vertex -2.856250166893006 -27.071249961853027 3.0826829999999994
  endloop
endfacet
facet normal 0.892333093197161 -0.45137748087065027 -0.000143345920179907
  outer loop
    vertex -2.856250166893006 -27.071249961853027 7.0
    vertex -2.636250019073487 -26.63874912261963 3.0826829999999994
    vertex -2.636250019073487 -26.63874912261963 7.0
  endloop
endfacet
facet normal 0.892333093197161 -0.45137748087065027 -0.000143345920179907
  outer loop
    vertex -2.636250019073487 -26.63874912261963 7.0
    vertex -2.636250019073487 -26.63874912261963 3.0826829999999994
    vertex -2.636250671948354 -26.631359994302013 3.9999999999999996
  endloop
endfacet
facet normal -0.7072745356071366 -0.7069389867909246 -1.5386043043245595e-05
  outer loop
    vertex -5.363749921321868 -27.071249961853027 7.0
    vertex -5.021250307559968 -27.41375017166137 3.0826829999999994
    vertex -5.021250307559968 -27.41375017166137 7.0
  endloop
endfacet
facet normal -0.7072745356071366 -0.7069389867909246 -1.5386043043245595e-05
  outer loop
    vertex -5.021250307559968 -27.41375017166137 3.0826829999999994
    vertex -5.363749921321868 -27.071249961853027 7.0
    vertex -5.363749921321868 -27.071249961853027 3.0826829999999994
  endloop
endfacet
facet normal -0.7072745356071366 -0.7069389867909246 -1.5386043043245595e-05
  outer loop
    vertex -5.363749921321868 -27.071249961853027 3.0826829999999994
    vertex -5.363749921321868 -27.071249961853027 7.0
    vertex -5.364964450309991 -27.06953030357429 3.9999999999999996
  endloop
endfacet
facet normal 0.8912607039401295 0.4534912982073214 7.898305158735323e-06
  outer loop
    vertex -2.856250166893006 -25.248749732971188 3.0826829999999994
    vertex -2.636640453252063 -25.68008046808875 3.9999999999999996
    vertex -2.636250019073487 -25.681250572204583 3.0826829999999994
  endloop
endfacet
facet normal 0.8912607039401295 0.4534912982073214 7.898305158735323e-06
  outer loop
    vertex -2.636640453252063 -25.68008046808875 3.9999999999999996
    vertex -2.856250166893006 -25.248749732971188 7.0
    vertex -2.636250019073487 -25.681250572204583 7.0
  endloop
endfacet
facet normal 0.8912607039401295 0.4534912982073214 7.898305158735323e-06
  outer loop
    vertex -2.856250166893006 -25.248749732971188 7.0
    vertex -2.636640453252063 -25.68008046808875 3.9999999999999996
    vertex -2.856250166893006 -25.248749732971188 3.0826829999999994
  endloop
endfacet
facet normal -0.15728862448356673 0.9875526763712748 0.0
  outer loop
    vertex -4.588750064373016 -24.686251163482662 7.0
    vertex -4.11000019311905 -24.610000133514404 3.0826829999999994
    vertex -4.588750064373016 -24.686251163482662 3.0826829999999994
  endloop
endfacet
facet normal -0.15728862448356673 0.9875526763712748 0.0
  outer loop
    vertex -4.11000019311905 -24.610000133514404 3.0826829999999994
    vertex -4.588750064373016 -24.686251163482662 7.0
    vertex -4.11000019311905 -24.610000133514404 7.0
  endloop
endfacet
facet normal 0.1568722049097171 -0.987618909598525 -2.7021926144741777e-05
  outer loop
    vertex -3.6312500238418584 -27.633750915527337 7.0
    vertex -4.11000019311905 -27.70999956130981 3.0826829999999994
    vertex -3.6312500238418584 -27.633750915527337 3.0826829999999994
  endloop
endfacet
facet normal 0.1568722049097171 -0.987618909598525 -2.7021926144741777e-05
  outer loop
    vertex -4.11000019311905 -27.70999956130981 3.0826829999999994
    vertex -3.6312500238418584 -27.633750915527337 7.0
    vertex -4.1134989333600505 -27.70992054496537 3.9999999999999996
  endloop
endfacet
facet normal 0.1568722049097171 -0.987618909598525 -2.7021926144741777e-05
  outer loop
    vertex -4.1134989333600505 -27.70992054496537 3.9999999999999996
    vertex -3.6312500238418584 -27.633750915527337 7.0
    vertex -4.11000019311905 -27.70999956130981 7.0
  endloop
endfacet
facet normal -0.4533825521686658 0.8913160277864564 0.0
  outer loop
    vertex -5.021250307559968 -24.906249523162835 7.0
    vertex -4.588750064373016 -24.686251163482662 3.0826829999999994
    vertex -5.021250307559968 -24.906249523162835 3.0826829999999994
  endloop
endfacet
facet normal -0.4533825521686658 0.8913160277864564 0.0
  outer loop
    vertex -4.588750064373016 -24.686251163482662 3.0826829999999994
    vertex -5.021250307559968 -24.906249523162835 7.0
    vertex -4.588750064373016 -24.686251163482662 7.0
  endloop
endfacet
facet normal -0.891050137144524 0.4539048925527979 4.014172914568188e-05
  outer loop
    vertex -5.363749921321868 -25.248749732971188 7.0
    vertex -5.580062103102026 -25.671977869795395 3.9999999999999996
    vertex -5.583750069141389 -25.681250572204583 7.0
  endloop
endfacet
facet normal -0.891050137144524 0.4539048925527979 4.014172914568188e-05
  outer loop
    vertex -5.580062103102026 -25.671977869795395 3.9999999999999996
    vertex -5.363749921321868 -25.248749732971188 3.0826829999999994
    vertex -5.583750069141389 -25.681250572204583 3.0826829999999994
  endloop
endfacet
facet normal -0.891050137144524 0.4539048925527979 4.014172914568188e-05
  outer loop
    vertex -5.363749921321868 -25.248749732971188 3.0826829999999994
    vertex -5.580062103102026 -25.671977869795395 3.9999999999999996
    vertex -5.363749921321868 -25.248749732971188 7.0
  endloop
endfacet
facet normal -0.9873206537173581 0.15873852105421127 -9.314854061993442e-05
  outer loop
    vertex -5.583750069141389 -25.681250572204583 7.0
    vertex -5.659999907016754 -26.159999847412106 3.0826829999999994
    vertex -5.659999907016754 -26.159999847412106 7.0
  endloop
endfacet
facet normal -0.9873206537173581 0.15873852105421127 -9.314854061993442e-05
  outer loop
    vertex -5.659999907016754 -26.159999847412106 3.0826829999999994
    vertex -5.583750069141389 -25.681250572204583 7.0
    vertex -5.583750069141389 -25.681250572204583 3.0826829999999994
  endloop
endfacet
facet normal -0.9873206537173581 0.15873852105421127 -9.314854061993442e-05
  outer loop
    vertex -5.583750069141389 -25.681250572204583 3.0826829999999994
    vertex -5.583750069141389 -25.681250572204583 7.0
    vertex -5.580062103102026 -25.671977869795395 3.9999999999999996
  endloop
endfacet
facet normal 0.987435135591087 -0.15802484117093787 -5.0725848393285616e-05
  outer loop
    vertex -2.5599998831748967 -26.159999847412106 3.0826829999999994
    vertex -2.636250671948354 -26.631359994302013 3.9999999999999996
    vertex -2.636250019073487 -26.63874912261963 3.0826829999999994
  endloop
endfacet
facet normal 0.987435135591087 -0.15802484117093787 -5.0725848393285616e-05
  outer loop
    vertex -2.636250671948354 -26.631359994302013 3.9999999999999996
    vertex -2.5599998831748967 -26.159999847412106 7.0
    vertex -2.636250019073487 -26.63874912261963 7.0
  endloop
endfacet
facet normal 0.987435135591087 -0.15802484117093787 -5.0725848393285616e-05
  outer loop
    vertex -2.5599998831748967 -26.159999847412106 7.0
    vertex -2.636250671948354 -26.631359994302013 3.9999999999999996
    vertex -2.5599998831748967 -26.159999847412106 3.0826829999999994
  endloop
endfacet
facet normal 0.4533828003631896 0.8913159015381876 -0.0
  outer loop
    vertex -3.6312500238418584 -24.686251163482662 7.0
    vertex -3.1987500786781315 -24.906249523162835 3.0826829999999994
    vertex -3.6312500238418584 -24.686251163482662 3.0826829999999994
  endloop
endfacet
facet normal 0.4533828003631896 0.8913159015381876 -0.0
  outer loop
    vertex -3.1987500786781315 -24.906249523162835 3.0826829999999994
    vertex -3.6312500238418584 -24.686251163482662 7.0
    vertex -3.1987500786781315 -24.906249523162835 7.0
  endloop
endfacet
facet normal -0.9876458791485994 -0.15670231570565707 4.0660486561625856e-05
  outer loop
    vertex -5.659999907016754 -26.159999847412106 7.0
    vertex -5.586328198402038 -26.628464628358056 3.9999999999999996
    vertex -5.583750069141389 -26.63874912261963 7.0
  endloop
endfacet
facet normal -0.9876458791485994 -0.15670231570565707 4.0660486561625856e-05
  outer loop
    vertex -5.586328198402038 -26.628464628358056 3.9999999999999996
    vertex -5.659999907016754 -26.159999847412106 3.0826829999999994
    vertex -5.583750069141389 -26.63874912261963 3.0826829999999994
  endloop
endfacet
facet normal -0.9876458791485994 -0.15670231570565707 4.0660486561625856e-05
  outer loop
    vertex -5.659999907016754 -26.159999847412106 3.0826829999999994
    vertex -5.586328198402038 -26.628464628358056 3.9999999999999996
    vertex -5.659999907016754 -26.159999847412106 7.0
  endloop
endfacet
facet normal -0.8921608065845975 -0.45171792978441616 -8.429473203954904e-05
  outer loop
    vertex -5.583750069141389 -26.63874912261963 7.0
    vertex -5.364964450309991 -27.06953030357429 3.9999999999999996
    vertex -5.363749921321868 -27.071249961853027 7.0
  endloop
endfacet
facet normal -0.8921608065845975 -0.45171792978441616 -8.429473203954904e-05
  outer loop
    vertex -5.364964450309991 -27.06953030357429 3.9999999999999996
    vertex -5.583750069141389 -26.63874912261963 3.0826829999999994
    vertex -5.363749921321868 -27.071249961853027 3.0826829999999994
  endloop
endfacet
facet normal -0.8921608065845975 -0.45171792978441616 -8.429473203954904e-05
  outer loop
    vertex -5.583750069141389 -26.63874912261963 3.0826829999999994
    vertex -5.364964450309991 -27.06953030357429 3.9999999999999996
    vertex -5.583750069141389 -26.63874912261963 7.0
  endloop
endfacet
facet normal -0.8921608065845975 -0.45171792978441616 -8.429473203954904e-05
  outer loop
    vertex -5.583750069141389 -26.63874912261963 3.0826829999999994
    vertex -5.583750069141389 -26.63874912261963 7.0
    vertex -5.586328198402038 -26.628464628358056 3.9999999999999996
  endloop
endfacet
facet normal -0.0 -0.0 -1.0
  outer loop
    vertex -5.583750069141389 -25.681250572204583 3.0826829999999994
    vertex -5.583750069141389 -26.63874912261963 3.0826829999999994
    vertex -5.659999907016754 -26.159999847412106 3.0826829999999994
  endloop
endfacet
facet normal -0.0 -0.0 -1.0
  outer loop
    vertex -5.583750069141389 -26.63874912261963 3.0826829999999994
    vertex -5.583750069141389 -25.681250572204583 3.0826829999999994
    vertex -5.363749921321868 -25.248749732971188 3.0826829999999994
  endloop
endfacet
facet normal -0.0 -0.0 -1.0
  outer loop
    vertex -5.583750069141389 -26.63874912261963 3.0826829999999994
    vertex -5.363749921321868 -25.248749732971188 3.0826829999999994
    vertex -5.363749921321868 -27.071249961853027 3.0826829999999994
  endloop
endfacet
facet normal -0.0 -0.0 -1.0
  outer loop
    vertex -5.363749921321868 -27.071249961853027 3.0826829999999994
    vertex -5.363749921321868 -25.248749732971188 3.0826829999999994
    vertex -5.021250307559968 -24.906249523162835 3.0826829999999994
  endloop
endfacet
facet normal -0.0 -0.0 -1.0
  outer loop
    vertex -5.363749921321868 -27.071249961853027 3.0826829999999994
    vertex -5.021250307559968 -24.906249523162835 3.0826829999999994
    vertex -5.021250307559968 -27.41375017166137 3.0826829999999994
  endloop
endfacet
facet normal -0.0 -0.0 -1.0
  outer loop
    vertex -5.021250307559968 -27.41375017166137 3.0826829999999994
    vertex -5.021250307559968 -24.906249523162835 3.0826829999999994
    vertex -4.588750064373016 -24.686251163482662 3.0826829999999994
  endloop
endfacet
facet normal -0.0 -0.0 -1.0
  outer loop
    vertex -5.021250307559968 -27.41375017166137 3.0826829999999994
    vertex -4.588750064373016 -24.686251163482662 3.0826829999999994
    vertex -4.588750064373016 -27.633750915527337 3.0826829999999994
  endloop
endfacet
facet normal -0.0 -0.0 -1.0
  outer loop
    vertex -4.588750064373016 -27.633750915527337 3.0826829999999994
    vertex -4.588750064373016 -24.686251163482662 3.0826829999999994
    vertex -4.11000019311905 -24.610000133514404 3.0826829999999994
  endloop
endfacet
facet normal -0.0 -0.0 -1.0
  outer loop
    vertex -4.588750064373016 -27.633750915527337 3.0826829999999994
    vertex -4.11000019311905 -24.610000133514404 3.0826829999999994
    vertex -4.11000019311905 -27.70999956130981 3.0826829999999994
  endloop
endfacet
facet normal -0.0 -0.0 -1.0
  outer loop
    vertex -4.11000019311905 -27.70999956130981 3.0826829999999994
    vertex -4.11000019311905 -24.610000133514404 3.0826829999999994
    vertex -3.6312500238418584 -24.686251163482662 3.0826829999999994
  endloop
endfacet
facet normal -0.0 -0.0 -1.0
  outer loop
    vertex -4.11000019311905 -27.70999956130981 3.0826829999999994
    vertex -3.6312500238418584 -24.686251163482662 3.0826829999999994
    vertex -3.6312500238418584 -27.633750915527337 3.0826829999999994
  endloop
endfacet
facet normal -0.0 -0.0 -1.0
  outer loop
    vertex -3.6312500238418584 -27.633750915527337 3.0826829999999994
    vertex -3.6312500238418584 -24.686251163482662 3.0826829999999994
    vertex -3.1987500786781315 -24.906249523162835 3.0826829999999994
  endloop
endfacet
facet normal -0.0 -0.0 -1.0
  outer loop
    vertex -3.6312500238418584 -27.633750915527337 3.0826829999999994
    vertex -3.1987500786781315 -24.906249523162835 3.0826829999999994
    vertex -3.1987500786781315 -27.41375017166137 3.0826829999999994
  endloop
endfacet
facet normal -0.0 -0.0 -1.0
  outer loop
    vertex -3.1987500786781315 -27.41375017166137 3.0826829999999994
    vertex -3.1987500786781315 -24.906249523162835 3.0826829999999994
    vertex -2.856250166893006 -25.248749732971188 3.0826829999999994
  endloop
endfacet
facet normal -0.0 -0.0 -1.0
  outer loop
    vertex -3.1987500786781315 -27.41375017166137 3.0826829999999994
    vertex -2.856250166893006 -25.248749732971188 3.0826829999999994
    vertex -2.856250166893006 -27.071249961853027 3.0826829999999994
  endloop
endfacet
facet normal -0.0 -0.0 -1.0
  outer loop
    vertex -2.856250166893006 -27.071249961853027 3.0826829999999994
    vertex -2.856250166893006 -25.248749732971188 3.0826829999999994
    vertex -2.636250019073487 -25.681250572204583 3.0826829999999994
  endloop
endfacet
facet normal -0.0 -0.0 -1.0
  outer loop
    vertex -2.856250166893006 -27.071249961853027 3.0826829999999994
    vertex -2.636250019073487 -25.681250572204583 3.0826829999999994
    vertex -2.636250019073487 -26.63874912261963 3.0826829999999994
  endloop
endfacet
facet normal -0.0 -0.0 -1.0
  outer loop
    vertex -2.636250019073487 -26.63874912261963 3.0826829999999994
    vertex -2.636250019073487 -25.681250572204583 3.0826829999999994
    vertex -2.5599998831748967 -26.159999847412106 3.0826829999999994
  endloop
endfacet
facet normal -0.0 -0.0 -1.0
  outer loop
    vertex 8.66950011253357 -1.2164999693632126 2.0439280000000006
    vertex 8.66950011253357 -1.933500036597252 2.0439280000000006
    vertex 8.612499952316282 -1.5750000923871994 2.0439280000000006
  endloop
endfacet
facet normal -0.0 -0.0 -1.0
  outer loop
    vertex 8.66950011253357 -1.933500036597252 2.0439280000000006
    vertex 8.66950011253357 -1.2164999693632126 2.0439280000000006
    vertex 8.834499597549438 -0.8909999579191203 2.0439280000000006
  endloop
endfacet
facet normal -0.0 -0.0 -1.0
  outer loop
    vertex 8.66950011253357 -1.933500036597252 2.0439280000000006
    vertex 8.834499597549438 -0.8909999579191203 2.0439280000000006
    vertex 8.834499597549438 -2.258999869227409 2.0439280000000006
  endloop
endfacet
facet normal -0.0 -0.0 -1.0
  outer loop
    vertex 8.834499597549438 -2.258999869227409 2.0439280000000006
    vertex 8.834499597549438 -0.8909999579191203 2.0439280000000006
    vertex 9.091000318527222 -0.6345000416040418 2.0439280000000006
  endloop
endfacet
facet normal -0.0 -0.0 -1.0
  outer loop
    vertex 8.834499597549438 -2.258999869227409 2.0439280000000006
    vertex 9.091000318527222 -0.6345000416040418 2.0439280000000006
    vertex 9.091000318527222 -2.515499874949455 2.0439280000000006
  endloop
endfacet
facet normal -0.0 -0.0 -1.0
  outer loop
    vertex 9.091000318527222 -2.515499874949455 2.0439280000000006
    vertex 9.091000318527222 -0.6345000416040418 2.0439280000000006
    vertex 9.416500329971312 -0.46950002014637 2.0439280000000006
  endloop
endfacet
facet normal -0.0 -0.0 -1.0
  outer loop
    vertex 9.091000318527222 -2.515499874949455 2.0439280000000006
    vertex 9.416500329971312 -0.46950002014637 2.0439280000000006
    vertex 9.416500329971312 -2.6805000752210617 2.0439280000000006
  endloop
endfacet
facet normal -0.0 -0.0 -1.0
  outer loop
    vertex 9.416500329971312 -2.6805000752210617 2.0439280000000006
    vertex 9.416500329971312 -0.46950002014637 2.0439280000000006
    vertex 9.774999380111693 -0.4125000387430189 2.0439280000000006
  endloop
endfacet
facet normal -0.0 -0.0 -1.0
  outer loop
    vertex 9.416500329971312 -2.6805000752210617 2.0439280000000006
    vertex 9.774999380111693 -0.4125000387430189 2.0439280000000006
    vertex 9.774999380111693 -2.7374998778104778 2.0439280000000006
  endloop
endfacet
facet normal -0.0 -0.0 -1.0
  outer loop
    vertex 9.774999380111693 -2.7374998778104778 2.0439280000000006
    vertex 9.774999380111693 -0.4125000387430189 2.0439280000000006
    vertex 10.13349986076355 -0.46950002014637 2.0439280000000006
  endloop
endfacet
facet normal -0.0 -0.0 -1.0
  outer loop
    vertex 9.774999380111693 -2.7374998778104778 2.0439280000000006
    vertex 10.13349986076355 -0.46950002014637 2.0439280000000006
    vertex 10.13349986076355 -2.6805000752210617 2.0439280000000006
  endloop
endfacet
facet normal -0.0 -0.0 -1.0
  outer loop
    vertex 10.13349986076355 -2.6805000752210617 2.0439280000000006
    vertex 10.13349986076355 -0.46950002014637 2.0439280000000006
    vertex 10.458999872207642 -0.6345000416040418 2.0439280000000006
  endloop
endfacet
facet normal -0.0 -0.0 -1.0
  outer loop
    vertex 10.13349986076355 -2.6805000752210617 2.0439280000000006
    vertex 10.458999872207642 -0.6345000416040418 2.0439280000000006
    vertex 10.458999872207642 -2.515499874949455 2.0439280000000006
  endloop
endfacet
facet normal -0.0 -0.0 -1.0
  outer loop
    vertex 10.458999872207642 -2.515499874949455 2.0439280000000006
    vertex 10.458999872207642 -0.6345000416040418 2.0439280000000006
    vertex 10.715500593185425 -0.8909999579191203 2.0439280000000006
  endloop
endfacet
facet normal -0.0 -0.0 -1.0
  outer loop
    vertex 10.458999872207642 -2.515499874949455 2.0439280000000006
    vertex 10.715500593185425 -0.8909999579191203 2.0439280000000006
    vertex 10.715500593185425 -2.258999869227409 2.0439280000000006
  endloop
endfacet
facet normal -0.0 -0.0 -1.0
  outer loop
    vertex 10.715500593185425 -2.258999869227409 2.0439280000000006
    vertex 10.715500593185425 -0.8909999579191203 2.0439280000000006
    vertex 10.880500078201292 -1.2164999693632126 2.0439280000000006
  endloop
endfacet
facet normal -0.0 -0.0 -1.0
  outer loop
    vertex 10.715500593185425 -2.258999869227409 2.0439280000000006
    vertex 10.880500078201292 -1.2164999693632126 2.0439280000000006
    vertex 10.880500078201292 -1.933500036597252 2.0439280000000006
  endloop
endfacet
facet normal -0.0 -0.0 -1.0
  outer loop
    vertex 10.880500078201292 -1.933500036597252 2.0439280000000006
    vertex 10.880500078201292 -1.2164999693632126 2.0439280000000006
    vertex 10.937500238418577 -1.5750000923871994 2.0439280000000006
  endloop
endfacet
facet normal 0.4521392573510588 0.8919473594119964 -0.0
  outer loop
    vertex 10.13349986076355 -0.46950002014637 7.0
    vertex 10.458999872207642 -0.6345000416040418 2.0439280000000006
    vertex 10.13349986076355 -0.46950002014637 2.0439280000000006
  endloop
endfacet
facet normal 0.4521392573510588 0.8919473594119964 -0.0
  outer loop
    vertex 10.458999872207642 -0.6345000416040418 2.0439280000000006
    vertex 10.13349986076355 -0.46950002014637 7.0
    vertex 10.458999872207642 -0.6345000416040418 7.0
  endloop
endfacet
facet normal 0.4521391773783195 0.891947201647593 0.0005947711197685545
  outer loop
    vertex -4.286500215530385 -0.4695000201463714 3.9019999504089355
    vertex -3.9607373002348285 -0.6339289009130775 2.8456331375220123
    vertex -4.2862373116789145 -0.4689288794554066 2.8456331375220123
  endloop
endfacet
facet normal 0.4521391773783195 0.891947201647593 0.0005947711197685545
  outer loop
    vertex -3.9607373002348285 -0.6339289009130775 2.8456331375220123
    vertex -4.286500215530385 -0.4695000201463714 3.9019999504089355
    vertex -3.9610002040862993 -0.6345000416040423 3.9019999504089355
  endloop
endfacet
facet normal 0.08313418793127889 -0.0008387477539000158 0.9965380089586208
  outer loop
    vertex 9.774999618530272 -0.8000000119209288 3.9915645122528076
    vertex 9.70120316505432 2.5639998912811275 3.9999999999999996
    vertex 9.664999961853026 -0.8174895644187927 3.9999999999999996
  endloop
endfacet
facet normal 0.08313418793127889 -0.0008387477539000158 0.9965380089586208
  outer loop
    vertex 9.70120316505432 2.5639998912811275 3.9999999999999996
    vertex 9.774999618530272 -0.8000000119209288 3.9915645122528076
    vertex 9.787388997299493 -0.4132955691502472 3.989664265554118
  endloop
endfacet
facet normal -0.336743933149646 0.9415962635264155 2.2596312158138602e-09
  outer loop
    vertex 5.265999794006348 2.315999984741211 3.9979999065399165
    vertex 6.044679641723632 2.5944800376892085 3.9979999065399165
    vertex 5.265999794006348 2.315999984741211 0.06873653829097746
  endloop
endfacet
facet normal -0.336743933149646 0.9415962635264155 2.2596312158138602e-09
  outer loop
    vertex 6.044679641723632 2.5944800376892085 3.9979999065399165
    vertex 5.265999794006348 2.315999984741211 3.9979999065399165
    vertex 5.959452152252197 2.5639998912811275 3.9999999999999996
  endloop
endfacet
facet normal 0.07573601808601374 0.007622322419572282 0.9970987693129539
  outer loop
    vertex 9.991000175476072 2.5639998912811275 3.974999904632568
    vertex 9.705323781967163 2.594079971313476 3.9979999065399165
    vertex 9.70120316505432 2.5639998912811275 3.9999999999999996
  endloop
endfacet
facet normal 0.08082299914092884 0.0054791267965763 0.9967134101532961
  outer loop
    vertex 9.991000175476072 2.5639998912811275 3.974999904632568
    vertex 9.987000465393066 2.6229999065399165 3.974999904632568
    vertex 9.705323781967163 2.594079971313476 3.9979999065399165
  endloop
endfacet
facet normal 0.7071067811865543 -0.7071067811865408 0.0
  outer loop
    vertex -3.9607373002348285 -2.514928734258491 2.8456331375220123
    vertex -3.7045001983642596 -2.2589998692274116 7.0
    vertex -3.9610002040862993 -2.5154998749494566 7.0
  endloop
endfacet
facet normal 0.7071067811865543 -0.7071067811865408 0.0
  outer loop
    vertex -3.7045001983642596 -2.2589998692274116 7.0
    vertex -3.9607373002348285 -2.514928734258491 2.8456331375220123
    vertex -3.704237294512789 -2.2584287285364466 2.8456331375220123
  endloop
endfacet
facet normal -0.15649956364730008 -0.9876780261062813 -5.76628528642157e-05
  outer loop
    vertex -4.64128347034284 -2.737428561485869 3.9829320466283495
    vertex -5.003236842471169 -2.6799289345300963 2.8456331375220123
    vertex -4.644737077075044 -2.7369287371195137 2.8456331375220123
  endloop
endfacet
facet normal -0.15649956364730008 -0.9876780261062813 -5.76628528642157e-05
  outer loop
    vertex -5.003236842471169 -2.6799289345300963 2.8456331375220123
    vertex -4.64128347034284 -2.737428561485869 3.9829320466283495
    vertex -5.00349974632264 -2.6805000752210617 7.0
  endloop
endfacet
facet normal -0.15649956364730008 -0.9876780261062813 -5.76628528642157e-05
  outer loop
    vertex -5.00349974632264 -2.6805000752210617 7.0
    vertex -4.64128347034284 -2.737428561485869 3.9829320466283495
    vertex -4.644999980926515 -2.7374998778104787 7.0
  endloop
endfacet
facet normal 0.15742172791905282 -0.987531466578581 4.578358699692944e-05
  outer loop
    vertex -4.286500215530385 -2.6805000752210617 7.0
    vertex -4.644737077075044 -2.7369287371195137 2.8456331375220123
    vertex -4.2862373116789145 -2.6799289345300963 2.8456331375220123
  endloop
endfacet
facet normal 0.15742172791905282 -0.987531466578581 4.578358699692944e-05
  outer loop
    vertex -4.644737077075044 -2.7369287371195137 2.8456331375220123
    vertex -4.286500215530385 -2.6805000752210617 7.0
    vertex -4.64128347034284 -2.737428561485869 3.9829320466283495
  endloop
endfacet
facet normal 0.15742172791905282 -0.987531466578581 4.578358699692944e-05
  outer loop
    vertex -4.64128347034284 -2.737428561485869 3.9829320466283495
    vertex -4.286500215530385 -2.6805000752210617 7.0
    vertex -4.644999980926515 -2.7374998778104787 7.0
  endloop
endfacet
facet normal 0.8919470616361826 -0.4521398447809925 0.0
  outer loop
    vertex -3.704237294512789 -2.2584287285364466 2.8456331375220123
    vertex -3.539499998092656 -1.933500036597254 7.0
    vertex -3.7045001983642596 -2.2589998692274116 7.0
  endloop
endfacet
facet normal 0.8919470616361826 -0.4521398447809925 0.0
  outer loop
    vertex -3.539499998092656 -1.933500036597254 7.0
    vertex -3.704237294512789 -2.2584287285364466 2.8456331375220123
    vertex -3.539237094241185 -1.932928895906289 2.8456331375220123
  endloop
endfacet
facet normal 0.9875948018291233 -0.1570239070972793 0.0
  outer loop
    vertex -3.539237094241185 -1.932928895906289 2.8456331375220123
    vertex -3.4824998378753693 -1.5750000923872 7.0
    vertex -3.539499998092656 -1.933500036597254 7.0
  endloop
endfacet
facet normal 0.9875948018291233 -0.1570239070972793 0.0
  outer loop
    vertex -3.4824998378753693 -1.5750000923872 7.0
    vertex -3.539237094241185 -1.932928895906289 2.8456331375220123
    vertex -3.4822369340238986 -1.5744289516962349 2.8456331375220123
  endloop
endfacet
facet normal -0.4521333354335706 -0.8919503612727667 -3.885262740264891e-06
  outer loop
    vertex -5.00349974632264 -2.6805000752210617 7.0
    vertex -5.32873685391525 -2.514928734258491 2.8456331375220123
    vertex -5.003236842471169 -2.6799289345300963 2.8456331375220123
  endloop
endfacet
facet normal -0.4521333354335706 -0.8919503612727667 -3.885262740264891e-06
  outer loop
    vertex -5.32873685391525 -2.514928734258491 2.8456331375220123
    vertex -5.00349974632264 -2.6805000752210617 7.0
    vertex -5.328999757766721 -2.5154998749494566 7.0
  endloop
endfacet
facet normal 0.4521396471744406 -0.891947161805548 0.0
  outer loop
    vertex -3.9610002040862993 -2.5154998749494566 7.0
    vertex -4.2862373116789145 -2.6799289345300963 2.8456331375220123
    vertex -3.9607373002348285 -2.514928734258491 2.8456331375220123
  endloop
endfacet
facet normal 0.4521396471744406 -0.891947161805548 0.0
  outer loop
    vertex -4.2862373116789145 -2.6799289345300963 2.8456331375220123
    vertex -3.9610002040862993 -2.5154998749494566 7.0
    vertex -4.286500215530385 -2.6805000752210617 7.0
  endloop
endfacet
facet normal 0.9875948139748163 0.15702383070747042 -0.0
  outer loop
    vertex -3.4822369340238986 -1.5744289516962349 2.8456331375220123
    vertex -3.539499998092656 -1.2164999693632135 7.0
    vertex -3.4824998378753693 -1.5750000923872 7.0
  endloop
endfacet
facet normal 0.9875948139748163 0.15702383070747042 -0.0
  outer loop
    vertex -3.539499998092656 -1.2164999693632135 7.0
    vertex -3.4822369340238986 -1.5744289516962349 2.8456331375220123
    vertex -3.539237094241185 -1.2159288286722483 2.8456331375220123
  endloop
endfacet
facet normal 0.15937956190846772 0.987217341944344 -0.0002738799176160133
  outer loop
    vertex -4.644999980926515 -0.4125000387430205 7.0
    vertex -4.2862373116789145 -0.4689288794554066 2.8456331375220123
    vertex -4.644737077075044 -0.41192889805205574 2.8456331375220123
  endloop
endfacet
facet normal 0.15937956190846772 0.987217341944344 -0.0002738799176160133
  outer loop
    vertex -4.2862373116789145 -0.4689288794554066 2.8456331375220123
    vertex -4.644999980926515 -0.4125000387430205 7.0
    vertex -4.286500215530385 -0.4695000201463714 3.9019999504089355
  endloop
endfacet
facet normal 0.15937956190846772 0.987217341944344 -0.0002738799176160133
  outer loop
    vertex -4.286500215530385 -0.4695000201463714 3.9019999504089355
    vertex -4.644999980926515 -0.4125000387430205 7.0
    vertex -4.294340911843937 -0.47136921426554884 3.9999999999999996
  endloop
endfacet
facet normal 0.15937956190846772 0.987217341944344 -0.0002738799176160133
  outer loop
    vertex -4.294340911843937 -0.47136921426554884 3.9999999999999996
    vertex -4.644999980926515 -0.4125000387430205 7.0
    vertex -4.286500215530385 -0.4695000201463714 7.0
  endloop
endfacet
facet normal -0.7015538324345614 0.7126164053702216 -0.00028105800716065964
  outer loop
    vertex -5.585499763488774 -0.8909999579191221 7.0
    vertex -5.32873685391525 -0.6339289009130775 2.8456331375220123
    vertex -5.585236859637303 -0.8904288172281568 2.8456331375220123
  endloop
endfacet
facet normal -0.7015538324345614 0.7126164053702216 -0.00028105800716065964
  outer loop
    vertex -5.32873685391525 -0.6339289009130775 2.8456331375220123
    vertex -5.585499763488774 -0.8909999579191221 7.0
    vertex -5.3162038244513194 -0.6332426486594814 3.8052004116588907
  endloop
endfacet
facet normal -0.7015538324345614 0.7126164053702216 -0.00028105800716065964
  outer loop
    vertex -5.3162038244513194 -0.6332426486594814 3.8052004116588907
    vertex -5.585499763488774 -0.8909999579191221 7.0
    vertex -5.328999757766721 -0.6345000416040423 7.0
  endloop
endfacet
facet normal 0.4497923955179584 0.8931329407754652 -0.0005924828993338769
  outer loop
    vertex -4.294340911843937 -0.47136921426554884 3.9999999999999996
    vertex -3.9610002040862993 -0.6345000416040423 3.9019999504089355
    vertex -4.286500215530385 -0.4695000201463714 3.9019999504089355
  endloop
endfacet
facet normal 0.4497923955179584 0.8931329407754652 -0.0005924828993338769
  outer loop
    vertex -3.9610002040862993 -0.6345000416040423 3.9019999504089355
    vertex -4.294340911843937 -0.47136921426554884 3.9999999999999996
